<?xml version="1.0" encoding="iso-8859-1"?>
<!-- Generator: Adobe Illustrator 18.0.0, SVG Export Plug-In . SVG Version: 6.00 Build 0)  -->
<!DOCTYPE svg PUBLIC "-//W3C//DTD SVG 1.1//EN" "http://www.w3.org/Graphics/SVG/1.1/DTD/svg11.dtd">
<svg version="1.1" id="Capa_1" xmlns="http://www.w3.org/2000/svg" xmlns:xlink="http://www.w3.org/1999/xlink" x="0px" y="0px"
	 viewBox="0 0 58 58" style="enable-background:new 0 0 58 58;" xml:space="preserve">
<g>
	<path style="fill:#5B4040;" d="M29.392,54.999c11.246,0.156,17.52-4.381,21.008-9.189c3.603-4.966,4.764-11.283,3.647-17.323
		C50.004,6.642,29.392,6.826,29.392,6.826S8.781,6.642,4.738,28.488c-1.118,6.04,0.044,12.356,3.647,17.323
		C11.872,50.618,18.146,55.155,29.392,54.999z"/>
	<path style="fill:#FFFFFF;" d="M28,21.012l-10.915,3.969c0.464,2.852,2.932,5.031,5.915,5.031c3.314,0,6-2.686,6-6
		c0-1.148-0.328-2.217-0.888-3.129L28,21.012z"/>
	<path style="fill:#FFFFFF;" d="M30.17,19.862C29.433,21.073,29,22.49,29,24.012c0,4.418,3.582,8,8,8
		c4.236,0,7.694-3.295,7.973-7.46L31,19.862H30.17z"/>
	<path style="fill:#705f5f" d="M28.112,20.883c-1.055-1.72-2.947-2.871-5.112-2.871c-3.314,0-6,2.686-6,6
		c0,0.331,0.034,0.653,0.085,0.969L28,21.012L28.112,20.883z"/>
	<path style="fill:#705f5f" d="M37,16.012c-2.896,0-5.425,1.544-6.83,3.849H31l13.973,4.69C44.985,24.373,45,24.194,45,24.012
		C45,19.594,41.418,16.012,37,16.012z"/>
	<path style="fill:#705f5f" d="M4.499,30.125c-0.453-0.429-0.985-0.687-1.559-0.687C1.316,29.438,0,31.418,0,33.862
		c0,2.443,1.316,4.424,2.939,4.424c0.687,0,1.311-0.37,1.811-0.964C4.297,34.969,4.218,32.537,4.499,30.125z"/>
	<path style="fill:#705f5f" d="M57.823,26.298c-0.563-2.377-2.3-3.999-3.879-3.622c-0.491,0.117-0.898,0.43-1.225,0.855
		c0.538,1.515,0.994,3.154,1.328,4.957c0.155,0.837,0.261,1.679,0.328,2.522c0.52,0.284,1.072,0.402,1.608,0.274
		C57.562,30.907,58.386,28.675,57.823,26.298z"/>
	<circle style="fill:#7F5B53;" cx="24" cy="26.012" r="1"/>
	<circle style="fill:#7F5B53;" cx="34.5" cy="26.512" r="1.5"/>
	<path style="fill:#802D40;" d="M18,45.012c0-6.075,4.925-9,11-9s11,2.925,11,9s-4.925,1-11,1S18,51.087,18,45.012z"/>
	<path style="fill:#E64C3C;" d="M29,46.012c1.798,0,3.494,0.445,4.993,0.913c-0.04-2.727-2.256-4.927-4.993-4.927
		s-4.953,2.2-4.993,4.927C25.506,46.457,27.202,46.012,29,46.012z"/>
</g>
<g>
</g>
<g>
</g>
<g>
</g>
<g>
</g>
<g>
</g>
<g>
</g>
<g>
</g>
<g>
</g>
<g>
</g>
<g>
</g>
<g>
</g>
<g>
</g>
<g>
</g>
<g>
</g>
<g>
</g>
</svg>
