<?xml version="1.0" encoding="iso-8859-1"?>
<!-- Generator: Adobe Illustrator 18.0.0, SVG Export Plug-In . SVG Version: 6.00 Build 0)  -->
<!DOCTYPE svg PUBLIC "-//W3C//DTD SVG 1.1//EN" "http://www.w3.org/Graphics/SVG/1.1/DTD/svg11.dtd">
<svg version="1.1" id="Capa_1" xmlns="http://www.w3.org/2000/svg" xmlns:xlink="http://www.w3.org/1999/xlink" x="0px" y="0px"
	 viewBox="0 0 58 58" style="enable-background:new 0 0 58 58;" xml:space="preserve">
<g>
	<path style="fill:#705f5f;" d="M29.392,54.999c11.246,0.156,17.52-4.381,21.008-9.189c3.603-4.966,4.764-11.283,3.647-17.323
		C50.004,6.642,29.392,6.826,29.392,6.826S8.781,6.642,4.738,28.488c-1.118,6.04,0.044,12.356,3.647,17.323
		C11.872,50.618,18.146,55.155,29.392,54.999z"/>
	<path style="fill:#5B4040;" d="M4.499,30.125c-0.453-0.429-0.985-0.687-1.559-0.687C1.316,29.438,0,31.419,0,33.862
		c0,2.443,1.316,4.424,2.939,4.424c0.687,0,1.311-0.37,1.811-0.964C4.297,34.97,4.218,32.538,4.499,30.125z"/>
	<path style="fill:#5B4040;" d="M57.823,26.298c-0.563-2.377-2.3-3.999-3.879-3.622c-0.491,0.117-0.898,0.43-1.225,0.855
		c0.538,1.515,0.994,3.154,1.328,4.957c0.155,0.837,0.261,1.679,0.328,2.522c0.52,0.284,1.072,0.402,1.608,0.274
		C57.562,30.907,58.386,28.675,57.823,26.298z"/>
	<circle style="fill:#FFFFFF;" cx="21" cy="25.003" r="6"/>
	<circle style="fill:#7F5B53;" cx="19" cy="23.003" r="2"/>
	<circle style="fill:#FFFFFF;" cx="39" cy="25.003" r="6"/>
	<circle style="fill:#7F5B53;" cx="37" cy="23.003" r="2"/>
	<path style="fill:#5B4040;" d="M21.999,47.004c-0.205,0-0.412-0.063-0.591-0.193c-0.445-0.327-0.541-0.953-0.215-1.398
		c3.31-4.511,9.473-7.517,14.026-6.828c2.338,0.35,4.016,1.66,4.725,3.689c0.182,0.521-0.093,1.092-0.614,1.274
		c-0.522,0.183-1.092-0.093-1.274-0.614c-0.465-1.333-1.519-2.131-3.132-2.372c-3.813-0.57-9.255,2.136-12.117,6.034
		C22.61,46.862,22.307,47.004,21.999,47.004z"/>
</g>
<g>
</g>
<g>
</g>
<g>
</g>
<g>
</g>
<g>
</g>
<g>
</g>
<g>
</g>
<g>
</g>
<g>
</g>
<g>
</g>
<g>
</g>
<g>
</g>
<g>
</g>
<g>
</g>
<g>
</g>
</svg>
