<?xml version="1.0" encoding="iso-8859-1"?>
<!-- Generator: Adobe Illustrator 18.0.0, SVG Export Plug-In . SVG Version: 6.00 Build 0)  -->
<!DOCTYPE svg PUBLIC "-//W3C//DTD SVG 1.1//EN" "http://www.w3.org/Graphics/SVG/1.1/DTD/svg11.dtd">
<svg version="1.1" id="Capa_1" xmlns="http://www.w3.org/2000/svg" xmlns:xlink="http://www.w3.org/1999/xlink" x="0px" y="0px"
	 viewBox="0 0 58 58" style="enable-background:new 0 0 58 58;" xml:space="preserve">
<g>
	<path style="fill:#5B4040;;" d="M29.392,54.999c11.246,0.156,17.52-4.381,21.008-9.189c3.603-4.966,4.764-11.283,3.647-17.323
		C50.004,6.642,29.392,6.826,29.392,6.826S8.781,6.642,4.738,28.488c-1.118,6.04,0.044,12.356,3.647,17.323
		C11.872,50.618,18.146,55.155,29.392,54.999z"/>
	<path style="fill:#594a4a" d="M4.499,30.125c-0.453-0.429-0.985-0.687-1.559-0.687C1.316,29.438,0,31.418,0,33.862
		c0,2.443,1.316,4.424,2.939,4.424c0.687,0,1.311-0.37,1.811-0.964C4.297,34.969,4.218,32.537,4.499,30.125z"/>
	<path style="fill:#594a4a" d="M57.823,26.298c-0.563-2.377-2.3-3.999-3.879-3.622c-0.491,0.117-0.898,0.43-1.225,0.855
		c0.538,1.515,0.994,3.154,1.328,4.957c0.155,0.837,0.261,1.679,0.328,2.522c0.52,0.284,1.072,0.402,1.608,0.274
		C57.562,30.907,58.386,28.675,57.823,26.298z"/>
	<path style="fill:#594a4a" d="M22.989,27.998c-0.282,0-0.557-0.12-0.75-0.339c-0.883-1.004-2.103-1.604-3.435-1.688
		c-1.337-0.094-2.618,0.354-3.622,1.238c-0.415,0.365-1.046,0.325-1.411-0.09s-0.325-1.047,0.09-1.412
		c1.404-1.237,3.204-1.855,5.07-1.732c0.935,0.06,1.831,0.3,2.647,0.701c-0.238-0.552-0.572-1.081-0.992-1.558
		c-0.977-1.11-2.292-1.795-3.606-1.878c-0.551-0.035-0.97-0.51-0.935-1.062c0.035-0.551,0.497-0.975,1.062-0.935
		c1.84,0.117,3.656,1.047,4.981,2.553c1.325,1.505,2.018,3.424,1.9,5.264c-0.026,0.403-0.292,0.752-0.675,0.883
		C23.206,27.981,23.097,27.998,22.989,27.998z"/>
	<circle style="fill:#FFFFFF;" cx="39" cy="24.998" r="6"/>
	<circle style="fill:#7F5B53;" cx="39" cy="24.998" r="2"/>
	<path style="fill:#594a4a" d="M32.857,45.148c-0.96,0-1.897-0.337-2.638-0.948c-0.426-0.353-0.486-0.982-0.134-1.408
		c0.352-0.425,0.982-0.484,1.408-0.135c0.389,0.321,0.86,0.491,1.364,0.491c1.182,0,2.143-0.962,2.143-2.144
		s-0.961-2.143-2.143-2.143c-0.641,0-1.244,0.284-1.654,0.78c-0.352,0.424-0.982,0.485-1.408,0.133
		c-0.426-0.352-0.485-0.982-0.133-1.408c0.791-0.956,1.956-1.505,3.195-1.505c2.285,0,4.143,1.858,4.143,4.143
		C37,43.289,35.142,45.148,32.857,45.148z"/>
	<path style="fill:#594a4a" d="M30.58,50.863c-0.172,0-0.345-0.011-0.518-0.032c-1.098-0.137-2.078-0.692-2.758-1.565
		c-0.591-0.757-0.901-1.703-0.874-2.663c0.015-0.552,0.471-0.942,1.028-0.972c0.552,0.016,0.987,0.477,0.971,1.028
		c-0.014,0.504,0.142,0.979,0.452,1.378c0.352,0.451,0.859,0.738,1.427,0.809c0.565,0.071,1.129-0.084,1.581-0.437
		c0.452-0.352,0.739-0.858,0.81-1.426c0.07-0.568-0.084-1.13-0.436-1.582c-0.131-0.167-0.286-0.314-0.459-0.437
		c-0.451-0.318-0.56-0.942-0.241-1.394c0.318-0.451,0.941-0.559,1.394-0.241c0.333,0.234,0.63,0.518,0.883,0.841
		c0.681,0.874,0.981,1.96,0.845,3.059s-0.692,2.078-1.565,2.758C32.383,50.559,31.497,50.863,30.58,50.863z"/>
</g>
<g>
</g>
<g>
</g>
<g>
</g>
<g>
</g>
<g>
</g>
<g>
</g>
<g>
</g>
<g>
</g>
<g>
</g>
<g>
</g>
<g>
</g>
<g>
</g>
<g>
</g>
<g>
</g>
<g>
</g>
</svg>
