<?xml version="1.0" encoding="iso-8859-1"?>
<!-- Generator: Adobe Illustrator 18.0.0, SVG Export Plug-In . SVG Version: 6.00 Build 0)  -->
<!DOCTYPE svg PUBLIC "-//W3C//DTD SVG 1.1//EN" "http://www.w3.org/Graphics/SVG/1.1/DTD/svg11.dtd">
<svg version="1.1" id="Capa_1" xmlns="http://www.w3.org/2000/svg" xmlns:xlink="http://www.w3.org/1999/xlink" x="0px" y="0px"
	 viewBox="0 0 58 58" style="enable-background:new 0 0 58 58;" xml:space="preserve">
<g>
	<path style="fill:#FFDB2B;" d="M29.392,54.999c11.246,0.156,17.52-4.381,21.008-9.189c3.603-4.966,4.764-11.283,3.647-17.323
		C50.004,6.642,29.392,6.827,29.392,6.827S8.781,6.642,4.738,28.488c-1.118,6.04,0.044,12.356,3.647,17.323
		C11.872,50.618,18.146,55.155,29.392,54.999z"/>
	<path style="fill:#FFDB2B;" d="M4.499,30.125c-0.453-0.429-0.985-0.687-1.559-0.687C1.316,29.438,0,31.419,0,33.862
		c0,2.443,1.316,4.424,2.939,4.424c0.687,0,1.311-0.37,1.811-0.964C4.297,34.97,4.218,32.538,4.499,30.125z"/>
	<path style="fill:#FFDB2B;" d="M57.823,26.298c-0.563-2.377-2.3-3.999-3.879-3.622c-0.491,0.117-0.898,0.43-1.225,0.855
		c0.538,1.515,0.994,3.154,1.328,4.957c0.155,0.837,0.261,1.679,0.328,2.522c0.52,0.284,1.072,0.402,1.608,0.274
		C57.562,30.907,58.386,28.675,57.823,26.298z"/>
	
	<ellipse style="fill:#FFFFFF;" cx="20" cy="24.499" rx="6" ry="7.5"/>
	<ellipse style="fill:#7F5B53;" cx="20" cy="24.499" rx="3" ry="4.5"/>
	<ellipse style="fill:#FFFFFF;" cx="38" cy="24.499" rx="6" ry="7.5"/>
	<ellipse style="fill:#7F5B53;" cx="38" cy="24.499" rx="3" ry="4.5"/>
	<path style="fill:#802D40;" d="M16,38.999v0.031c0,3.821,2.109,7.383,5.543,9.059c2.139,1.044,4.692,1.685,7.442,1.685
		c2.747,0,5.304-0.64,7.449-1.682c3.45-1.676,5.566-5.257,5.555-9.093v0H16z"/>
	<path style="fill:#E64C3C;" d="M38.029,47.085L38,46.999c0-2.462-4.284-3.542-9.004-3.542S20,44.536,20,46.999l-0.014,0.111
		c0.486,0.367,0.997,0.706,1.557,0.979c2.139,1.044,4.692,1.685,7.442,1.685c2.747,0,5.304-0.64,7.449-1.682
		C37.009,47.812,37.532,47.463,38.029,47.085z"/>
</g>
<g>
</g>
<g>
</g>
<g>
</g>
<g>
</g>
<g>
</g>
<g>
</g>
<g>
</g>
<g>
</g>
<g>
</g>
<g>
</g>
<g>
</g>
<g>
</g>
<g>
</g>
<g>
</g>
<g>
</g>
</svg>
