<?xml version="1.0" encoding="utf-8"?>
<!-- Generator: Adobe Illustrator 25.2.2, SVG Export Plug-In . SVG Version: 6.00 Build 0)  -->
<svg version="1.1" id="Layer_1" xmlns="http://www.w3.org/2000/svg" xmlns:xlink="http://www.w3.org/1999/xlink" x="0px" y="0px"
	 viewBox="0 0 1000 1000" style="enable-background:new 0 0 1000 1000;" xml:space="preserve">
<style type="text/css">
	.st0{fill:#E7BB6A;}
</style>
<g>
	<g>
		<path class="st0" d="M449.5,709.1c-35,22.3-70.6,42.6-90.8,68.8c-26.7,34.7-7.4,70.6,60,81.7c10.4,1.7,20.3,3.3,29.1-3.8
			c-5.7-3.6-11.4-7.2-17-10.9c-15.5-10.3-18.6-22.4-9.1-34.6c10.1-12.9,22.7-24.9,51-26.4c45.1-2.4,68.2,10.9,71.2,37.8
			c3.2,29.2-42.4,53.4-88.9,54.6c-63.4,1.5-109.6-19.3-128.8-47.3c-10-14.6-11.3-30.2,0.2-44.3c12.7-15.7,28.3-30.6,44.8-45
			c11.7-10.2,26.7-19.1,40.4-28.4c19-12.9,19.8-16.3,5.7-31.2c-48.7-51.5-21.7-100.4,50.7-133.2c39.8-18,87.2-21.5,135-8.9
			c9.5,2.5,18.8,5.2,30.5,8.4c18.5-13.8,36.9-27.2,54.9-40.9c9.7-7.4,8.5-16,5.2-24.3c-8.6-21.5-11.4-43.3-9.9-65.4
			c3-43.8,26.7-82.9,79.5-114.5c23.3-14,48-27.5,74.8-39c27.2-11.7,39.8-7.5,53.4,11c14.2,19.5,9.2,38.8,2.4,58.1
			c-15.6,43.8-46.5,83.5-98.3,116.7c-13.5,8.6-16.1,17-10.8,27.7c9.9,20,19.8,40,28.2,60.2c6.1,14.7,12.6,29.7,13.6,44.7
			c3.7,53.5-26.9,98.2-101.8,130.7c-38.7,16.8-81.6,26.9-129.3,28.2c-42,1.2-80.6-5.9-115.7-19.6C470.9,716.7,462,713.6,449.5,709.1
			z M467.8,692.7c22.2,17.3,50.4,23.8,79.9,28.4c64.7,10,120.5,0.8,164-30c27.2-19.3,39-42.4,41.2-67.1c2.4-26.4-11.1-51.2-23.1-76
			c-5.4-11.1-12.4-21.9-20.1-35.4c-13.6,9.8-23.2,17.4-34,24.3c-18.3,11.7-22.6,22.7-7.9,37.8c29.3,29.9,23,59.6-11.3,87.1
			c-27.3,21.9-65.1,30.2-110.1,27.2c-4-0.3-7.7-2.3-15.1-4.7c25.3-5.2,48.9-7.6,67.8-14.5c20.9-7.7,29.7-21.6,28.6-36.8
			c-1-14.1-4.3-27.7-28.8-37.9C554.8,627.8,511.9,659.8,467.8,692.7z M766.8,441.4c2.4,0.1,4.9,0.2,7.3,0.3
			c40-28.4,63.5-61.2,67.4-98.1c1-9.5-5.9-20-12.7-29.1c-8.1-10.8-27.4-13.8-42.4-6.2c-11.7,6-21.6,14.3-27.5,22.8
			c-16.1,23-15.1,47.5-9.3,71.6C752.8,415.9,760.9,428.6,766.8,441.4z M450.4,682.2c44-32.9,86-64.3,128.4-95.9
			c-39.1-13.5-85.9-8.4-118.8,11.5C422.5,620.5,417.8,651.7,450.4,682.2z"/>
		<path class="st0" d="M139,985.4c-39.3-25.9-60.7-53.4-64.6-86.2c-4.9-40.9,20.6-74.8,63.5-105.5c9.7-6.9,19.6-14,26.9-21.8
			c6.8-7.3,10.2-15.6,15.9-24.8c6.4,1.3,13.3,2.4,19.7,4.2c35,9.7,74.5-5,82.7-20.7c11.9-22.7-9.4-48.7-44.2-50.3
			c-4.4-0.2-8.6-1.5-15.8-2.8c33.9-29,31-62.9,45-94.1c22.4-49.8,70.4-87.5,150-108.7c29.8-8,63.6-10.7,95.7-15.5
			c10.1-1.5,20.7-3.1,30.9-2.7c24,1,31.7-7.1,38.8-19c39.8-66.4,81-132.5,121.7-198.8c9.1-14.8,18-29.6,27-44.5
			c-7-3.5-12.6-6.3-16.4-8.2c-0.5-18.7,14.2-33.1,26.4-47.9c6.4-7.8,12.5-15.4-2.4-25c20.6,0.2,33.6-3.7,45.7-10.5
			c12.3-6.9,28.3-11.4,42.1-17.4C843.6,78,858,70,863.2,57.6c4.9-11.6-3.6-19.7-17.8-26.4c-14.3-6.8-33-7.6-47.9-2.3
			c-20.9,7.4-22.4,23.1-1.9,30.3c5.2,1.8,13.6,0.3,20.5,0.4c-1-3.5-1.5-7.1-3.3-10.4c-1-1.8-4-3.3-6.6-5.3
			c12.6-6.1,22.8-3.8,31.4,1.3c7.7,4.5,11.3,10.2,7.7,17c-7.3,13.7-29.1,20.5-52,15.9c-21.7-4.3-37.1-17.6-36.2-31.3
			c0.8-13.1,18.4-27.9,38.9-30.5c40.1-5.1,77.7,1.7,89.7,30.5c5.9,14.3-3.3,26.8-19.5,37.1c-18.8,12-38.1,23.8-58.6,34.7
			c-24.2,12.9-31.8,30.4-42,47.3c-1.5,2.5-2.3,6.6,0,8.1c13.5,8.7,4.6,16.8-0.5,25.1c-32.2,52.4-64.5,104.9-96.8,157.3
			c-20.8,33.9-41.6,67.8-62.5,101.7c-7.7,12.4-8.1,11.1-30.4,12.3c-92.6,4.9-178.4,18.7-233,69c-26.3,24.3-39.6,50.8-40.4,79.8
			c-0.7,23.3,3.2,46.2,13.2,68.5c16.7,37.2-9.7,63.3-58.8,84.1c-21.7,9.2-45.4,16.8-65.8,26.8c-49.8,24.5-79.5,55.2-81.5,94.7
			c-1.6,29.9,6.1,58.3,29,85C139.1,979.6,138.5,981.3,139,985.4z"/>
	</g>
</g>
</svg>
